<svg width="14" height="12" viewBox="0 0 14 12" fill="none" xmlns="http://www.w3.org/2000/svg">
<path d="M4.99509 6.28256C5.00122 5.60934 5.18207 4.94926 5.51994 4.36694C5.85781 3.78462 6.3411 3.30003 6.92252 2.9606C7.03824 2.86916 7.17568 2.80925 7.32143 2.78672C7.46719 2.76419 7.61629 2.7798 7.75422 2.83204C7.89215 2.88427 8.01418 2.97135 8.10845 3.08478C8.20272 3.19821 8.26602 3.33411 8.29214 3.47926C8.43444 3.89691 8.60661 4.30462 8.74464 4.72369C8.78144 4.84948 8.85083 4.9633 8.94579 5.05364C9.04075 5.14398 9.15791 5.20762 9.28539 5.23809C9.70801 5.35976 10.1306 5.48 10.5511 5.60665C10.6064 5.61709 10.659 5.63845 10.7059 5.66949C10.7528 5.70052 10.793 5.74061 10.8242 5.78739C10.8554 5.83417 10.877 5.8867 10.8877 5.94192C10.8983 5.99714 10.8978 6.05393 10.8863 6.10896C10.8798 6.16835 10.8607 6.22567 10.8303 6.27704C10.7998 6.32842 10.7587 6.37266 10.7096 6.40678C10.6606 6.4409 10.6048 6.46412 10.5461 6.47485C10.4873 6.48558 10.4269 6.48358 10.369 6.46899C9.94566 6.40993 9.52373 6.34376 9.10395 6.26265C8.78919 6.21548 8.49071 6.09209 8.23451 5.90323C7.97832 5.71437 7.77219 5.46576 7.63402 5.17903C7.56287 5.03673 7.47604 4.90085 7.38284 4.73862C7.05563 5.05746 6.83583 5.47026 6.7539 5.91971C6.70196 6.12604 6.75387 6.22421 6.95878 6.29465C7.56782 6.50312 8.17259 6.72583 8.77452 6.95493C8.89441 6.98374 9.00513 7.04229 9.09644 7.12516C9.18774 7.20803 9.25671 7.31255 9.29698 7.4291C9.33725 7.54564 9.34749 7.67045 9.32681 7.79201C9.30614 7.91357 9.25518 8.02796 9.17864 8.12463C8.87697 8.62268 8.55398 9.10791 8.23451 9.59529C8.00826 9.94036 8.00399 9.93751 8.23451 10.2876C8.24874 10.3089 8.27364 10.331 8.27364 10.3523C8.27364 10.4669 8.30849 10.6177 8.25015 10.686C8.20722 10.7283 8.15509 10.7601 8.09781 10.7789C8.04053 10.7977 7.97966 10.8029 7.92002 10.7942C7.61302 10.7072 7.31252 10.5988 7.02071 10.4697C6.96395 10.4512 6.91208 10.4202 6.86893 10.3789C6.82578 10.3376 6.79244 10.2872 6.7714 10.2313C6.75036 10.1755 6.74216 10.1156 6.74738 10.0561C6.7526 9.99661 6.77113 9.93907 6.80158 9.88772C7.02499 9.3503 7.24907 8.81289 7.4739 8.27548C7.4924 8.23065 7.50594 8.1844 7.52515 8.13317C7.04916 7.99087 6.58386 7.85283 6.12352 7.70627C5.92092 7.65003 5.72576 7.56978 5.54222 7.46721C5.34861 7.34141 5.19452 7.16345 5.09771 6.95384C5.0009 6.74423 4.96533 6.51152 4.99509 6.28256Z" fill="#7E8392"/>
<path d="M3.90118 6.92708C3.48638 6.93206 3.07086 6.92282 2.65606 6.93136C2.48415 6.93508 2.31302 6.95582 2.14519 6.99326C1.79242 7.06779 1.46716 7.23852 1.20545 7.48654C0.94374 7.73456 0.755804 8.0502 0.662448 8.39847L0.513062 8.846L0.42343 8.83532C0.291525 8.52807 0.242511 8.19159 0.28134 7.85948C0.320168 7.52738 0.445419 7.21127 0.644644 6.94273C0.244783 6.85664 0.0463098 6.66811 0.0391948 6.34367C0.0202216 5.50458 0.00744665 4.66525 0.000806019 3.82569C-0.00339611 3.74675 0.00886382 3.66782 0.0368498 3.5939C0.0648358 3.51998 0.107886 3.45269 0.163307 3.39633C0.218728 3.33997 0.285283 3.29577 0.358725 3.26655C0.432167 3.23733 0.51085 3.22372 0.58984 3.2266C1.46451 3.21853 2.33925 3.21853 3.21391 3.2266C3.38578 3.22652 3.55183 3.28867 3.68144 3.40154C3.81105 3.51441 3.89544 3.67038 3.91898 3.84062C4.07836 4.66975 4.23557 5.49983 4.39068 6.33086C4.41172 6.40381 4.41469 6.48078 4.39936 6.55513C4.38404 6.62949 4.35087 6.699 4.3027 6.75767C4.25452 6.81635 4.19278 6.86244 4.12283 6.89195C4.05288 6.92146 3.97683 6.93352 3.90118 6.92708Z" fill="#7E8392"/>
<path d="M10.7331 7.71735C10.8647 7.65118 10.9181 7.58785 10.8619 7.44057C10.8219 7.32468 10.7914 7.2057 10.7709 7.08482C10.7324 6.89557 10.7964 6.76607 10.9387 6.72908C11.0946 6.6871 11.2184 6.77248 11.2703 6.96316C11.3173 7.13463 11.3592 7.30824 11.4076 7.49963C11.5806 7.48999 11.754 7.48999 11.927 7.49963C12.3552 7.55255 12.7569 7.73526 13.0782 8.02322C13.3995 8.31118 13.625 8.6906 13.7243 9.11046C13.8227 9.53122 13.7906 9.972 13.6323 10.3741C13.4739 10.7761 13.1967 11.1204 12.8377 11.3609C12.4786 11.5983 12.0555 11.7202 11.6251 11.7102C11.1947 11.7001 10.7777 11.5586 10.4301 11.3047C10.1401 11.09 9.9098 10.8048 9.76116 10.476C9.61251 10.1473 9.55043 9.78599 9.58081 9.42648C9.61118 9.06696 9.73299 8.7212 9.93469 8.42205C10.1364 8.1229 10.4112 7.88031 10.7331 7.71735ZM10.4891 10.0439C10.5996 10.3397 10.8162 10.5837 11.0967 10.7284C11.3773 10.8731 11.7017 10.9081 12.0067 10.8266C12.3186 10.74 12.5859 10.538 12.7544 10.2616C12.9228 9.98517 12.9798 9.65503 12.9139 9.33812C12.8538 9.04341 12.6888 8.78056 12.4494 8.59849C12.21 8.41642 11.9126 8.32755 11.6125 8.34844C11.6688 8.56616 11.7193 8.78031 11.7833 8.98878C11.794 9.02507 11.8544 9.04998 11.9 9.07275C11.9739 9.10454 12.0402 9.15163 12.0946 9.21093C12.1489 9.27023 12.1901 9.34037 12.2154 9.41675C12.2407 9.49312 12.2495 9.57398 12.2412 9.65401C12.233 9.73403 12.2078 9.81139 12.1675 9.881C12.1292 9.94751 12.0779 10.0056 12.0166 10.0518C11.9553 10.0979 11.8852 10.1312 11.8107 10.1496C11.7362 10.168 11.6588 10.1712 11.583 10.1589C11.5073 10.1466 11.4348 10.1191 11.3699 10.0781C11.303 10.0339 11.246 9.97635 11.2024 9.90903C11.1588 9.84171 11.1297 9.76611 11.1167 9.68697C11.1038 9.60782 11.1075 9.52686 11.1274 9.44919C11.1474 9.37152 11.1832 9.29882 11.2326 9.23568C11.2693 9.1746 11.2831 9.10251 11.2717 9.03219C11.2369 8.84506 11.1828 8.66222 11.1294 8.463C10.8446 8.59903 10.621 8.83668 10.5025 9.12922C10.384 9.42177 10.3792 9.74804 10.4891 10.0439Z" fill="#7E8392"/>
<path d="M3.12249 7.49377C3.39982 7.49016 3.67505 7.54192 3.93213 7.646C4.18921 7.75008 4.42295 7.90439 4.61966 8.09991C4.81637 8.29543 4.97216 8.52821 5.07781 8.78466C5.18345 9.0411 5.23684 9.31604 5.23492 9.59338C5.23736 9.87058 5.18494 10.1455 5.08067 10.4024C4.97641 10.6592 4.82235 10.8929 4.62739 11.09C4.43243 11.2871 4.20044 11.4436 3.94473 11.5507C3.68901 11.6577 3.41464 11.7131 3.13743 11.7136C2.86016 11.714 2.58559 11.6596 2.32944 11.5534C2.07329 11.4473 1.8406 11.2915 1.64487 11.0951C1.44914 10.8987 1.29418 10.6656 1.1889 10.4091C1.08361 10.1526 1.03012 9.87778 1.03143 9.60051C1.03011 9.04407 1.24949 8.5098 1.64149 8.11487C2.03348 7.71994 2.56606 7.49659 3.12249 7.49377ZM3.13813 10.8719C3.47397 10.8682 3.79495 10.7327 4.03184 10.4946C4.26873 10.2565 4.40258 9.93492 4.40461 9.59907C4.40219 9.26261 4.26742 8.94063 4.0295 8.70271C3.79158 8.46479 3.46964 8.33006 3.13318 8.32764C2.9668 8.32828 2.80219 8.36189 2.64889 8.42654C2.49559 8.4912 2.35666 8.58562 2.24007 8.70432C2.12349 8.82302 2.03159 8.96365 1.9697 9.11808C1.90781 9.27252 1.8772 9.43769 1.87955 9.60404C1.87728 9.77021 1.90811 9.93518 1.97031 10.0893C2.03251 10.2434 2.12483 10.3836 2.24181 10.5016C2.35879 10.6196 2.49804 10.7132 2.65158 10.7768C2.80512 10.8404 2.96986 10.8727 3.13604 10.8719H3.13813Z" fill="#7E8392"/>
<path d="M10.5122 1.72909C10.0948 1.64884 9.68251 1.54359 9.27771 1.4139C9.01161 1.33492 8.86932 1.41888 8.90703 1.69352C8.94707 1.92656 8.99908 2.15738 9.06284 2.38508C9.07992 2.47387 9.12203 2.55596 9.18417 2.62163C9.24631 2.6873 9.32593 2.73386 9.41364 2.75581C9.77579 2.85258 10.1386 2.94649 10.5043 3.02831C10.6751 3.06602 10.7178 3.12365 10.6089 3.26738C10.5413 3.37409 10.4416 3.45667 10.3242 3.50331C10.2067 3.54995 10.0775 3.55827 9.95508 3.52706C9.50925 3.42212 9.07151 3.2854 8.64521 3.11795C8.36532 3.00007 8.12925 2.79772 7.96993 2.53916C7.81061 2.2806 7.73598 1.97876 7.75653 1.67576C7.78766 1.50033 7.83409 1.32797 7.89528 1.16064C8.01274 0.885734 8.21283 0.654176 8.46781 0.498127C8.7228 0.342077 9.02003 0.269271 9.31827 0.289767C9.63922 0.307111 9.94795 0.418559 10.2059 0.610253C10.4639 0.801947 10.6598 1.06536 10.769 1.36765C10.875 1.65794 10.8103 1.77676 10.5122 1.72909Z" fill="#7E8392"/>
<path d="M12.436 7.05051C12.2584 7.00238 12.087 6.93384 11.9251 6.8463C11.7909 6.77629 11.6788 6.67037 11.6013 6.54034C11.5238 6.4103 11.4839 6.26127 11.4861 6.1099C11.4846 5.88111 11.5539 5.65747 11.6845 5.4696C11.815 5.28172 12.0005 5.13882 12.2154 5.06046C12.263 5.02345 12.3186 4.99793 12.3777 4.98589C12.4368 4.97385 12.4979 4.9756 12.5562 4.99102C12.6145 5.00644 12.6684 5.0351 12.7139 5.07479C12.7593 5.11447 12.795 5.16412 12.8181 5.21983C13.0062 5.52492 13.097 5.88004 13.0785 6.23798C13.0375 6.4395 12.9828 6.63799 12.9148 6.83207C12.9021 6.88084 12.8786 6.92615 12.8462 6.96472C12.8138 7.00329 12.7732 7.03415 12.7273 7.05507C12.6815 7.07598 12.6315 7.08643 12.5811 7.08564C12.5308 7.08485 12.4811 7.07285 12.436 7.05051Z" fill="#7E8392"/>
<path d="M9.20066 1.54071C9.23054 1.53146 9.32023 1.61186 9.32521 1.65953C9.33019 1.7072 9.27394 1.77408 9.2156 1.88721C9.1352 1.78262 9.05837 1.72569 9.06335 1.67375C9.06833 1.62181 9.14303 1.55494 9.20066 1.54071Z" fill="#7E8392"/>
<path d="M3.10384 9.0289C3.18197 9.02408 3.26028 9.03517 3.334 9.06149C3.40772 9.08781 3.47531 9.12881 3.53272 9.18202C3.59013 9.23524 3.63613 9.29956 3.66795 9.37108C3.69977 9.44259 3.71679 9.51982 3.71789 9.59809C3.71758 9.74977 3.65924 9.8956 3.55487 10.0057C3.45049 10.1157 3.30793 10.1817 3.15648 10.1901C3.07971 10.1922 3.00324 10.1792 2.93153 10.1518C2.85981 10.1243 2.7943 10.0829 2.73863 10.03C2.68296 9.97713 2.63823 9.91375 2.60713 9.84353C2.57604 9.77331 2.55912 9.69764 2.55737 9.62086C2.55364 9.54594 2.56489 9.47102 2.59046 9.4005C2.61603 9.32998 2.65544 9.26528 2.70632 9.21016C2.7572 9.15504 2.81855 9.11061 2.8868 9.07949C2.95505 9.04837 3.02886 9.03117 3.10384 9.0289Z" fill="#7E8392"/>
</svg>
