<svg width="11" height="14" viewBox="0 0 11 14" fill="none" xmlns="http://www.w3.org/2000/svg">
<path d="M4.93978 13.044C4.62706 13.0441 4.31513 13.0126 4.00871 12.9502C3.41783 12.8291 2.85657 12.5929 2.35695 12.2551C1.61417 11.7536 1.03276 11.0475 0.683154 10.2223C0.564965 9.9429 0.474735 9.65245 0.413783 9.35523C0.288627 8.74082 0.288627 8.10749 0.413783 7.49309C0.534814 6.90221 0.771008 6.34095 1.10889 5.84132C1.61033 5.09855 2.31642 4.51713 3.14161 4.16753C3.42104 4.04934 3.71149 3.95911 4.00871 3.89816C4.62312 3.773 5.25645 3.773 5.87085 3.89816C6.46173 4.01919 7.02299 4.25538 7.52262 4.59326C8.26539 5.0947 8.84681 5.80079 9.19641 6.62598C9.3146 6.90542 9.40483 7.19587 9.46578 7.49309C9.58885 8.0977 9.59079 8.72072 9.47147 9.32609C9.36914 9.84678 9.17672 10.3456 8.90288 10.8002C8.49276 11.485 7.91202 12.0517 7.2174 12.445C6.52277 12.8383 5.73801 13.0447 4.93978 13.044ZM6.53113 6.25995C6.45627 6.25989 6.38214 6.27462 6.31298 6.30328C6.24383 6.33194 6.18101 6.37398 6.12814 6.42698L4.51334 8.03965C4.40636 8.14681 4.34634 8.29208 4.34648 8.44349C4.34661 8.59491 4.40689 8.74007 4.51405 8.84705C4.62121 8.95402 4.76648 9.01404 4.9179 9.01391C5.06931 9.01378 5.21448 8.9535 5.32145 8.84634L6.12814 8.03965L6.93483 7.23367C7.01547 7.15426 7.07058 7.05259 7.0931 6.94168C7.11562 6.83077 7.10454 6.71566 7.06126 6.61109C7.01798 6.50652 6.94448 6.41724 6.85016 6.35469C6.75585 6.29213 6.64501 6.25915 6.53184 6.25995H6.53113Z" fill="#7E8392"/>
<path d="M2.67844 1.5603C2.67844 1.40007 2.74209 1.24641 2.85538 1.13311C2.96868 1.01982 3.12234 0.956169 3.28257 0.956169L6.90735 0.956169C7.06757 0.956169 7.22123 1.01982 7.33453 1.13311C7.44783 1.24641 7.51148 1.40007 7.51148 1.5603C7.51148 1.72052 7.44783 1.87419 7.33453 1.98748C7.22123 2.10078 7.06757 2.16443 6.90735 2.16443H3.28257C3.12234 2.16443 2.96868 2.10078 2.85538 1.98748C2.74209 1.87419 2.67844 1.72052 2.67844 1.5603V1.5603Z" fill="#7E8392"/>
<path d="M8.87916 2.68857C8.99619 2.57154 9.15491 2.50579 9.32042 2.50579C9.48592 2.50579 9.64465 2.57154 9.76167 2.68857L10.5587 3.48564C10.6758 3.60267 10.7415 3.76139 10.7415 3.9269C10.7415 4.0924 10.6758 4.25113 10.5587 4.36815C10.4417 4.48518 10.283 4.55093 10.1175 4.55093C9.95199 4.55093 9.79326 4.48518 9.67624 4.36815L8.87916 3.57108C8.76213 3.45405 8.69639 3.29532 8.69639 3.12982C8.69639 2.96432 8.76213 2.80559 8.87916 2.68857Z" fill="#7E8392"/>
</svg>
